# xmcd
#
# Track frame offsets:
#	150
#	11943
#	25718
#	38321
#	51093
#	62625
#	76759
#	88665
#	99662
#	110473
#	122413
#	133216
#	148545
#	158230
#	170015
#	182095
#	193842
#	207934
#	219154
#	229814
#
# Disc length: 3255 seconds
#
# Revision: 0
# Processed by: cddbd v1.5.2PL0 Copyright (c) Steve Scherf et al.
# Submitted via: FairStars CD Ripper 1.50
#
DISCID=0d0cb514
DTITLE=Tennessee Ernie Ford - Famous Country Music Makers CD1
DYEAR=2008
DGENRE=Country
TTITLE0=Sixteen Tons
TTITLE1=Mule Train
TTITLE2=That's All
TTITLE3=The Ballad of Davy Crockett
TTITLE4=The River of No Return
TTITLE5=Give Me Your Word
TTITLE6=His Hands
TTITLE7=Tennessee Border
TTITLE8=Country Junction
TTITLE9=Smokey Mountain Boogie
TTITLE10=Milk 'Em in the Morning Blues
TTITLE11=Philadelphia Lawyer
TTITLE12=Anticipation Blues
TTITLE13=I'll Never Be Free
TTITLE14=Ain't Nobody's Business But My Own
TTITLE15=The Shot-Gun Boogie
TTITLE16=Mister and Mississippi
TTITLE17=Blackberry Boogie
TTITLE18=Hey, Mr. Cotton Picker
TTITLE19=The Cry of the Wild Goose
EXTD=
EXTT0=
EXTT1=
EXTT2=
EXTT3=
EXTT4=
EXTT5=
EXTT6=
EXTT7=
EXTT8=
EXTT9=
EXTT10=
EXTT11=
EXTT12=
EXTT13=
EXTT14=
EXTT15=
EXTT16=
EXTT17=
EXTT18=
EXTT19=
PLAYORDER=
